<svg width="91" height="61" viewBox="0 0 91 61" fill="none" xmlns="http://www.w3.org/2000/svg">
<g clip-path="url(#clip0_88_234)">
<path d="M90.33 0.27002H0.329956V60.27H90.33V0.27002Z" fill="white"/>
<path d="M4.59296 9.97197C4.59296 9.13497 4.99496 8.72997 5.67596 8.72997C5.83724 8.71288 6.00006 8.74186 6.14555 8.81354C6.29104 8.88522 6.41323 8.99667 6.49796 9.13497C6.67515 9.50888 6.75265 9.92226 6.72296 10.335H9.32996V10.059C9.32996 8.28597 8.35796 6.91797 5.64896 6.91797C2.85896 6.91797 1.87496 8.46297 1.87496 10.29C1.87496 14.598 6.82796 13.212 6.82796 15.69C6.82796 16.35 6.52796 17.061 5.60096 17.061C4.67396 17.061 4.42196 16.401 4.42196 15.528V15.138H1.82996V15.888C1.82996 18.288 3.65396 18.888 5.62196 18.888C8.10596 18.888 9.55496 17.838 9.55496 15.228C9.54296 11.172 4.59296 12.372 4.59296 9.97197Z" fill="#221F1F"/>
<path d="M15.6959 11.4451H13.5329V7.14307H10.8329V18.6541H13.5329V13.7311H15.6959V18.6541H18.3959V7.14307H15.6959V11.4451Z" fill="#221F1F"/>
<path d="M23.889 6.91797C20.325 6.91797 19.83 9.23697 19.83 12.9C19.83 16.563 20.325 18.87 23.889 18.87C27.729 18.87 27.93 16.092 27.93 12.9C27.93 9.70797 27.729 6.91797 23.889 6.91797ZM23.871 17.07C22.809 17.07 22.647 16.053 22.647 12.894C22.647 9.73497 22.773 8.72097 23.871 8.72097C24.969 8.72097 25.131 9.73797 25.131 12.9C25.131 16.062 24.969 17.07 23.871 17.07Z" fill="#221F1F"/>
<path d="M37.2089 15.3361H37.1759L35.8859 7.14307H33.3689L32.1689 15.3361H32.1389L31.1219 7.14307H28.4219L30.4649 18.6541H33.4649L34.5779 10.4791H34.6109L35.7869 18.6541H38.7899L40.7879 7.14307H38.1749L37.2089 15.3361Z" fill="#221F1F"/>
<path d="M49.7009 17.0218L46.5269 6.98682H45.1589V18.8128H46.1519V8.96982L49.2179 18.8278H50.1299L53.1899 8.96082V18.8128H54.1829V6.98682H52.7939L49.7009 17.0218Z" fill="#221F1F"/>
<path d="M56.7119 13.1098H61.2119V12.1948H56.7119V7.90182H61.5359V6.98682H55.7219V18.8008H61.6799V17.8858H56.7119V13.1098Z" fill="#221F1F"/>
<path d="M64.9109 7.91402H67.9919V18.813H68.9669V7.91402H72.0329V6.99902H64.9109V7.91402Z" fill="#221F1F"/>
<path d="M78.456 12.0328H73.725V6.98682H72.735V18.8128H73.725V12.9598H78.456V18.8128H79.449V6.98682H78.456V12.0328Z" fill="#221F1F"/>
<path d="M81.447 17.8858V13.1098H85.95V12.1948H81.447V7.90182H86.271V6.98682H80.454V18.8008H86.415V17.8858H81.447Z" fill="#221F1F"/>
<path d="M90.33 21.7232C90.3341 21.8895 90.3046 22.0549 90.2432 22.2096C90.1819 22.3642 90.09 22.5049 89.973 22.6232C89.8619 22.7404 89.7278 22.8333 89.5792 22.8963C89.4305 22.9593 89.2704 22.9909 89.109 22.9892C88.9458 22.9892 88.7842 22.9568 88.6336 22.8939C88.483 22.831 88.3464 22.7388 88.2318 22.6227C88.1171 22.5067 88.0265 22.369 87.9655 22.2176C87.9044 22.0663 87.874 21.9043 87.876 21.7412C87.8717 21.5748 87.9011 21.4093 87.9624 21.2547C88.0238 21.1 88.1158 20.9593 88.233 20.8412C88.3464 20.7238 88.4826 20.6308 88.6332 20.5679C88.7838 20.5049 88.9457 20.4734 89.109 20.4752C89.2704 20.4734 89.4305 20.505 89.5792 20.568C89.7278 20.631 89.8619 20.724 89.973 20.8412C90.0877 20.9574 90.1782 21.0952 90.2395 21.2465C90.3008 21.3979 90.3315 21.5599 90.33 21.7232ZM90.135 21.7232C90.1376 21.4416 90.0299 21.1703 89.835 20.9672C89.7451 20.8692 89.6363 20.7904 89.5151 20.7358C89.3939 20.6811 89.2629 20.6516 89.13 20.6492C88.9894 20.6469 88.8499 20.6743 88.7207 20.7296C88.5915 20.7849 88.4753 20.8669 88.38 20.9702C88.2821 21.0711 88.2053 21.1904 88.1538 21.3212C88.1023 21.452 88.0772 21.5916 88.08 21.7322C88.0767 21.8714 88.1016 22.0099 88.1532 22.1393C88.2047 22.2686 88.2819 22.3863 88.38 22.4852C88.5626 22.678 88.8144 22.7905 89.0799 22.7978C89.3454 22.8051 89.603 22.7067 89.796 22.5242L89.835 22.4852C89.9336 22.3848 90.011 22.2656 90.0626 22.1347C90.1141 22.0038 90.1387 21.8638 90.135 21.7232ZM89.793 21.3962C89.7958 21.4585 89.7843 21.5207 89.7593 21.5779C89.7344 21.6351 89.6966 21.6858 89.649 21.7262C89.5564 21.806 89.4382 21.8496 89.316 21.8492L89.766 22.4492H89.487L89.04 21.8492H88.785V22.4492H88.557V20.9492H89.283C89.4191 20.9408 89.5533 20.9848 89.658 21.0722C89.7033 21.1126 89.739 21.1627 89.7624 21.2188C89.7857 21.2749 89.7962 21.3355 89.793 21.3962ZM89.562 21.3962C89.562 21.2462 89.445 21.1712 89.22 21.1712H88.785V21.6512H89.235C89.457 21.6512 89.562 21.5702 89.562 21.3962Z" fill="#221F1F"/>
<path d="M85.734 21.1891H2.07599C1.82478 21.1851 1.58218 21.2806 1.40118 21.4549C1.22019 21.6291 1.1155 21.8679 1.10999 22.1191V35.7061C1.11194 35.831 1.13848 35.9543 1.18808 36.0689C1.23769 36.1835 1.30939 36.2873 1.3991 36.3742C1.4888 36.4611 1.59475 36.5295 1.71089 36.5755C1.82704 36.6214 1.95109 36.6441 2.07599 36.6421H85.734C85.8591 36.6445 85.9835 36.6221 86.1 36.5763C86.2165 36.5306 86.3228 36.4622 86.4128 36.3753C86.5028 36.2883 86.5748 36.1844 86.6246 36.0696C86.6744 35.9548 86.701 35.8312 86.703 35.7061V22.1311C86.7022 22.0061 86.6767 21.8825 86.628 21.7674C86.5792 21.6522 86.5082 21.5479 86.419 21.4604C86.3298 21.3728 86.2241 21.3038 86.1081 21.2572C85.9921 21.2107 85.868 21.1875 85.743 21.1891H85.734Z" fill="white"/>
<path d="M85.686 37.4698H2.02496C1.77296 37.4665 1.52993 37.5632 1.34893 37.7386C1.16794 37.9139 1.06369 38.1538 1.05896 38.4058V51.9838C1.06091 52.1087 1.08745 52.2319 1.13706 52.3466C1.18667 52.4612 1.25837 52.5649 1.34807 52.6519C1.43778 52.7388 1.54373 52.8072 1.65987 52.8531C1.77601 52.8991 1.90007 52.9218 2.02496 52.9198H85.686C85.811 52.9221 85.9352 52.8998 86.0515 52.854C86.1678 52.8081 86.2739 52.7398 86.3637 52.6528C86.4535 52.5658 86.5252 52.4619 86.5747 52.3471C86.6241 52.2322 86.6504 52.1088 86.652 51.9838V38.3908C86.6504 38.2658 86.6241 38.1423 86.5747 38.0275C86.5252 37.9127 86.4535 37.8088 86.3637 37.7218C86.2739 37.6348 86.1678 37.5664 86.0515 37.5206C85.9352 37.4747 85.811 37.4524 85.686 37.4548V37.4698Z" fill="white"/>
<path fill-rule="evenodd" clip-rule="evenodd" d="M87.426 35.7061V22.1311C87.4196 21.6877 87.2382 21.2647 86.9212 20.9545C86.6042 20.6442 86.1775 20.4719 85.7339 20.4751H2.07596C1.63273 20.4719 1.20626 20.6443 0.889763 20.9546C0.573269 21.265 0.392495 21.6879 0.386956 22.1311V35.7061C0.388809 35.9643 0.4511 36.2184 0.568837 36.4482C0.686574 36.6779 0.856485 36.8769 1.06496 37.0291C0.840234 37.1786 0.655675 37.3809 0.527511 37.6184C0.399348 37.8559 0.331507 38.1213 0.329956 38.3911L0.329956 51.9691C0.331545 52.4142 0.509657 52.8404 0.825195 53.1543C1.14073 53.4681 1.56791 53.6439 2.01296 53.6431H85.686C86.1302 53.6456 86.5575 53.4722 86.8745 53.1608C87.1914 52.8495 87.3724 52.4254 87.378 51.9811V38.3911C87.3765 38.1322 87.314 37.8772 87.1957 37.6469C87.0774 37.4165 86.9066 37.2172 86.697 37.0651C86.92 36.9151 87.1029 36.7129 87.23 36.4761C87.357 36.2392 87.4243 35.9749 87.426 35.7061ZM86.6519 51.9691C86.65 52.094 86.6235 52.2173 86.5739 52.332C86.5242 52.4466 86.4525 52.5503 86.3628 52.6372C86.2731 52.7242 86.1672 52.7926 86.051 52.8385C85.9349 52.8845 85.8108 52.9071 85.686 52.9051H2.02496C1.89996 52.9075 1.77573 52.8852 1.65941 52.8393C1.54309 52.7935 1.43698 52.7251 1.3472 52.6381C1.25742 52.5511 1.18572 52.4472 1.13626 52.3324C1.08679 52.2176 1.06052 52.0942 1.05896 51.9691V38.3911C1.0668 38.1415 1.17251 37.905 1.35325 37.7327C1.53399 37.5604 1.77526 37.4661 2.02496 37.4701H85.686C85.938 37.4669 86.181 37.5636 86.362 37.7389C86.543 37.9143 86.6472 38.1542 86.6519 38.4061V51.9691ZM86.7029 35.7061C86.701 35.8313 86.6744 35.9548 86.6246 36.0697C86.5748 36.1845 86.5028 36.2884 86.4128 36.3753C86.3228 36.4623 86.2164 36.5306 86.1 36.5764C85.9835 36.6222 85.8591 36.6445 85.7339 36.6421H2.07596C1.95106 36.6441 1.82701 36.6215 1.71086 36.5755C1.59472 36.5296 1.48877 36.4612 1.39907 36.3742C1.30937 36.2873 1.23766 36.1836 1.18806 36.069C1.13845 35.9543 1.11191 35.831 1.10996 35.7061V22.1311C1.11469 21.88 1.21862 21.6409 1.39905 21.4661C1.57948 21.2912 1.82175 21.1949 2.07296 21.1981H85.7339C85.8588 21.1958 85.983 21.218 86.0993 21.2636C86.2156 21.3092 86.3217 21.3773 86.4117 21.4639C86.5017 21.5505 86.5737 21.6541 86.6237 21.7686C86.6737 21.883 86.7006 22.0062 86.7029 22.1311V35.7061Z" fill="#231F20"/>
<path d="M15.963 21.8701V35.9701H29.463V21.8701H15.963Z" fill="#231F20"/>
<path d="M30.03 21.8701V35.9701H43.53V21.8701H30.03Z" fill="#231F20"/>
<path d="M44.217 21.8701V35.9701H57.717V21.8701H44.217Z" fill="#231F20"/>
<path d="M58.392 21.8701V35.9701H71.892V21.8701H58.392Z" fill="#231F20"/>
<path d="M1.78796 21.8701V35.9701H15.288V21.8701H1.78796Z" fill="#231F20"/>
<path d="M8.84695 33.87C6.04795 33.87 4.55396 31.797 4.55396 29.004C4.55396 25.971 6.33296 24.147 8.85895 24.147C11.175 24.147 12.09 25.14 12.735 26.916L10.368 27.837C10.029 26.958 9.70795 26.403 8.84695 26.403C7.75795 26.403 7.28396 27.498 7.28396 28.992C7.28396 30.438 7.74295 31.584 8.87395 31.584C9.69295 31.584 10.044 31.14 10.554 30.246L12.762 31.446C12.132 32.67 11.079 33.87 8.84695 33.87Z" fill="white"/>
<path d="M23.526 29.877H21.963L22.14 29.259C22.476 28.059 22.626 27.54 22.74 26.907C22.86 27.54 23.007 28.05 23.34 29.259L23.526 29.877ZM27.498 33.612L24.078 24.189H21.438L18.03 33.612H20.829L21.33 31.941H24.159L24.669 33.612H27.498Z" fill="white"/>
<path d="M38.112 27.3721C38.112 28.0441 37.776 28.4221 36.912 28.4221H35.373V26.3701H36.954C37.791 26.3701 38.112 26.7781 38.112 27.3721ZM40.899 33.6721L39.015 30.0721C40.05 29.6011 40.71 28.7281 40.71 27.3151C40.71 25.0831 39.243 24.2461 37.035 24.2461H32.835V33.6751H35.403V30.4741H36.456L37.992 33.6571L40.899 33.6721Z" fill="white"/>
<path d="M49.8299 26.4539V27.7649H52.7759V29.9699H49.8299V33.6569H47.2319V24.2339H54.6869V26.4539H49.8299Z" fill="white"/>
<path d="M65.823 29.952H64.263L64.44 29.334C64.776 28.134 64.923 27.615 65.04 26.982C65.163 27.615 65.31 28.122 65.64 29.334L65.823 29.952ZM69.798 33.687L66.378 24.27H63.738L60.33 33.687H63.129L63.639 32.016H66.465L66.981 33.687H69.798Z" fill="white"/>
<path d="M72.4739 21.8311V35.9311H85.9739V21.8311H72.4739ZM77.8979 35.5741L78.1349 35.2441C78.5028 34.6956 78.8374 34.1256 79.1369 33.5371C79.3859 34.0471 79.7549 34.6771 80.1239 35.2651L80.3369 35.5951L77.8979 35.5741ZM85.6049 35.5741H83.5949L80.7539 31.5451L84.0089 26.9701H80.7689L80.1959 27.8701C79.8315 28.4237 79.497 28.9966 79.1939 29.5861C78.8996 28.9948 78.57 28.4218 78.2069 27.8701L77.6339 26.9701H74.3189L77.5769 31.6021L74.6999 35.5891H72.8369V22.2061H85.6049V35.5741Z" fill="#231F20"/>
<path d="M1.71893 38.0068V52.1068H15.2189V38.0068H1.71893ZM14.8499 38.3698V51.7468H2.07893V38.3698H14.8499Z" fill="#3678BC"/>
<path d="M15.9119 38.1299V52.2299H29.4299V38.1299H15.9119Z" fill="#3678BC"/>
<path d="M29.994 38.1299V52.2299H43.494V38.1299H29.994Z" fill="#3678BC"/>
<path d="M44.166 38.1299V52.2299H57.666V38.1299H44.166Z" fill="#3678BC"/>
<path d="M58.3439 38.1299V52.2299H71.8439V38.1299H58.3439Z" fill="#3678BC"/>
<path d="M72.549 38.2349V52.3349H86.049V38.2349H72.549Z" fill="#3678BC"/>
<path d="M11.6999 49.9588V48.2398H9.65394V39.9868H7.46994C7.46214 40.2248 7.39178 40.4566 7.26594 40.6588C7.14311 40.8454 6.97064 40.994 6.76794 41.0878C6.5362 41.1893 6.29041 41.255 6.03894 41.2828C5.74055 41.3222 5.43992 41.3422 5.13894 41.3428V42.9778H7.23894V48.2398H5.12994V49.9738L11.6999 49.9588Z" fill="#3678BC"/>
<path d="M26.988 45.2101C26.988 46.7981 26.588 48.0061 25.788 48.8341C25.3929 49.2558 24.9131 49.589 24.38 49.8119C23.8469 50.0347 23.2726 50.1422 22.695 50.1271C22.1295 50.142 21.5673 50.0379 21.0447 49.8213C20.5222 49.6047 20.0511 49.2806 19.662 48.8701C18.862 48.0381 18.462 46.8291 18.462 45.2431C18.462 43.6571 18.862 42.4391 19.662 41.5891C20.0552 41.1739 20.5322 40.8468 21.0612 40.6296C21.5903 40.4124 22.1594 40.31 22.731 40.3291C23.3004 40.3055 23.8683 40.4044 24.3962 40.6192C24.9241 40.834 25.3998 41.1596 25.791 41.5741C26.581 42.4081 26.98 43.6201 26.988 45.2101ZM24.336 45.2401C24.318 43.5001 23.772 42.6251 22.698 42.6151C21.624 42.6051 21.089 43.4711 21.093 45.2131C21.093 46.9531 21.657 47.8261 22.731 47.8381C23.805 47.8501 24.33 46.9681 24.33 45.2401H24.336Z" fill="white"/>
<path d="M40.2869 49.8599H37.8299L37.3919 47.7989C37.0539 46.0969 36.8379 44.7849 36.7439 43.8629C36.6539 44.7869 36.4369 46.0989 36.0929 47.7989L35.6549 49.8599H33.2549L30.9869 40.3589H33.6869L33.9449 41.9429C34.1989 43.4349 34.3889 44.8139 34.5149 46.0799C34.6709 44.8259 34.9079 43.4549 35.2229 41.9579L35.5499 40.3589H37.9499L38.2799 41.9579C38.5799 43.4579 38.8289 44.8259 38.9819 46.0799C39.1119 44.8079 39.3029 43.4289 39.5549 41.9429L39.8129 40.3589H42.5129L40.2869 49.8599Z" fill="white"/>
<path d="M52.845 49.8599L50.649 46.7399C50.089 45.9179 49.611 45.1759 49.215 44.5139C49.2664 44.8736 49.2925 45.2365 49.293 45.5999V49.8599H46.845V40.3589H49.095L51.117 43.1669C51.351 43.4849 51.624 43.8809 51.93 44.3669C52.1556 44.707 52.3619 45.0596 52.548 45.4229V44.9519C52.548 44.7449 52.524 44.5469 52.509 44.3069C52.491 43.8209 52.482 43.3739 52.482 42.9659V40.3709H54.93V49.8599H52.845Z" fill="white"/>
<path d="M61.545 49.8599V40.3589H68.589V42.5729H64.062V43.8359H66.78V46.0229H64.062V47.6489H68.679V49.8599H61.545Z" fill="white"/>
<path d="M80.3879 49.8599L78.8879 46.6469H77.8589V49.8599H75.351V40.3589H79.4699C80.5649 40.3589 81.4379 40.5749 82.0889 41.0489C82.7399 41.5229 83.049 42.3389 83.058 43.4489C83.032 44.8489 82.481 45.7769 81.405 46.2329L83.2379 49.8569L80.3879 49.8599ZM80.517 43.5269C80.517 42.8639 80.1509 42.5219 79.3949 42.5069H77.8499V44.5769H79.3499C80.1539 44.5679 80.526 44.2199 80.517 43.5269Z" fill="white"/>
</g>
<defs>
<clipPath id="clip0_88_234">
<rect width="90" height="60" fill="white" transform="translate(0.329956 0.27002)"/>
</clipPath>
</defs>
</svg>
